<?xml version="1.0" encoding="utf-8"?>
<!-- Generator: Adobe Illustrator 28.0.0, SVG Export Plug-In . SVG Version: 6.00 Build 0)  -->
<svg version="1.1" id="Capa_1" xmlns="http://www.w3.org/2000/svg" xmlns:xlink="http://www.w3.org/1999/xlink" x="0px" y="0px"
	 viewBox="0 0 1080 1080" style="enable-background:new 0 0 1080 1080;" xml:space="preserve">
<style type="text/css">
	.st0{fill-rule:evenodd;clip-rule:evenodd;fill:#FF3911;}
</style>
<path class="st0" d="M540,5C244.53,5,5,244.53,5,540c0,295.47,239.53,535,535,535c295.47,0,535-239.53,535-535
	C1075,244.53,835.47,5,540,5z M766.94,850.7c0,13.28-10.86,24.14-24.14,24.14H337.2c-13.28,0-24.14-10.86-24.14-24.14v-41.85
	c0-13.28,10.86-24.14,24.14-24.14h405.6c13.28,0,24.14,10.86,24.14,24.14V850.7z M790.67,634.79c-15.1,8.83-23.73,23.85-23.73,41.35
	v25.48c0,26.37-21.52,47.87-47.87,47.87h-24.16c-25.48,0-45.99-19.91-47.82-45.32l-5.39-75.45c1.38-23.02,10.49-42.99,27.21-59.58
	c9.99-9.91,16.35-23.46,16.96-38.49c0.12-0.76,0.15-1.54,0.04-2.34c0-4.82-0.57-9.49-1.69-13.95l-16.11-131.79
	c-0.24-1.95-1.88-3.4-3.83-3.4h-0.26c-2.14,0-3.87,1.73-3.87,3.87v111.08c0,6.01-4.91,10.91-10.92,10.91h-0.6
	c-5.76,0-10.6-4.47-10.88-10.24l-5.52-112.28c-0.09-2.05-1.82-3.63-3.87-3.63c-2.03,0-3.76,1.58-3.85,3.63l-5.52,112.28
	c-0.36,5.77-5.12,10.24-10.9,10.24h-0.58c-6.01,0-10.92-4.9-10.92-10.91V383.04c0-2.14-1.73-3.87-3.87-3.87h-0.26
	c-1.97,0-3.61,1.45-3.83,3.4l-16.11,131.78c-1.12,4.47-1.71,9.14-1.71,13.96c-0.1,0.8-0.08,1.58,0.05,2.33
	c0.59,15.04,6.98,28.59,16.96,38.5c14,13.9,22.67,30.17,25.93,48.62l-4.22,85.66c-1.26,25.7-22.11,46.07-47.85,46.07h-31.55
	c-25.48,0-46.08-19.91-47.81-45.32l-6.21-90.44c-1.43-20.99,7.96-39.15,23.45-53.38c19.03-17.49,31.66-48.1,31.66-82.92
	c0-54.35-30.71-98.4-68.59-98.4c-37.89,0-68.61,44.05-68.61,98.4c0,34.83,12.63,65.43,31.66,82.92
	c15.49,14.23,24.48,32.36,23.45,53.38l-4.37,89.69c-1.25,25.7-22.12,46.07-47.85,46.07h-35.97c-26.38,0-47.88-21.51-47.88-47.87
	v-10.97c0-19.49-10.94-36.15-28.81-43.91c-45.33-19.68-77-64.84-77-117.38c0-53.45,32.77-99.24,79.33-118.37
	c3.4-114.25,97.06-205.82,212.13-205.82c85.03,0,158.37,50,192.25,122.2c5.39-0.54,10.88-0.81,16.42-0.81
	c91.33,0,165.36,74.03,165.36,165.36C872.74,552.86,839.77,606.11,790.67,634.79z"/>
</svg>
