<?xml version="1.0" encoding="utf-8"?>
<!-- Generator: Adobe Illustrator 28.0.0, SVG Export Plug-In . SVG Version: 6.00 Build 0)  -->
<svg version="1.1" id="Capa_1" xmlns="http://www.w3.org/2000/svg" xmlns:xlink="http://www.w3.org/1999/xlink" x="0px" y="0px"
	 viewBox="0 0 1400 500" style="enable-background:new 0 0 1400 500;" xml:space="preserve">
<style type="text/css">
	.st0{fill-rule:evenodd;clip-rule:evenodd;fill:#FF3911;}
	.st1{fill:#FF3911;}
</style>
<g>
	<path class="st0" d="M212.01,89.9c-88.42,0-160.1,71.68-160.1,160.1c0,88.42,71.68,160.1,160.1,160.1
		c88.42,0,160.1-71.68,160.1-160.1C372.12,161.58,300.44,89.9,212.01,89.9z M279.93,342.98c0,3.97-3.25,7.22-7.22,7.22H151.33
		c-3.97,0-7.22-3.25-7.22-7.22v-12.52c0-3.97,3.25-7.22,7.22-7.22H272.7c3.97,0,7.22,3.25,7.22,7.22V342.98z M287.03,278.37
		c-4.52,2.64-7.1,7.14-7.1,12.37v7.62c0,7.89-6.44,14.33-14.33,14.33h-7.23c-7.63,0-13.76-5.96-14.31-13.56l-1.61-22.58
		c0.41-6.89,3.14-12.87,8.14-17.83c2.99-2.97,4.89-7.02,5.07-11.52c0.03-0.23,0.04-0.46,0.01-0.7c0-1.44-0.17-2.84-0.51-4.17
		l-4.82-39.44c-0.07-0.58-0.56-1.02-1.15-1.02h-0.08c-0.64,0-1.16,0.52-1.16,1.16v33.24c0,1.8-1.47,3.26-3.27,3.26h-0.18
		c-1.73,0-3.17-1.34-3.26-3.06l-1.65-33.6c-0.03-0.61-0.55-1.08-1.16-1.08c-0.61,0-1.12,0.47-1.15,1.08l-1.65,33.6
		c-0.11,1.73-1.53,3.06-3.26,3.06h-0.17c-1.8,0-3.27-1.47-3.27-3.26v-33.24c0-0.64-0.52-1.16-1.16-1.16h-0.08
		c-0.59,0-1.08,0.43-1.15,1.02l-4.82,39.44c-0.33,1.34-0.51,2.74-0.51,4.18c-0.03,0.24-0.02,0.47,0.02,0.7
		c0.18,4.5,2.09,8.55,5.08,11.52c4.19,4.16,6.78,9.03,7.76,14.55l-1.26,25.64c-0.38,7.69-6.62,13.79-14.32,13.79h-9.44
		c-7.62,0-13.79-5.96-14.31-13.56l-1.86-27.07c-0.43-6.28,2.38-11.72,7.02-15.97c5.69-5.23,9.47-14.39,9.47-24.82
		c0-16.27-9.19-29.45-20.53-29.45c-11.34,0-20.53,13.18-20.53,29.45c0,10.42,3.78,19.58,9.47,24.82c4.64,4.26,7.32,9.68,7.02,15.97
		l-1.31,26.84c-0.37,7.69-6.62,13.79-14.32,13.79h-10.76c-7.89,0-14.33-6.44-14.33-14.33v-3.28c0-5.83-3.27-10.82-8.62-13.14
		c-13.56-5.89-23.04-19.4-23.04-35.13c0-16,9.81-29.7,23.74-35.42c1.02-34.19,29.05-61.59,63.48-61.59
		c25.45,0,47.39,14.96,57.53,36.57c1.61-0.16,3.26-0.24,4.91-0.24c27.33,0,49.48,22.15,49.48,49.49
		C311.59,253.85,301.72,269.78,287.03,278.37z"/>
	<g>
		<path class="st1" d="M455.22,332.65h-30.61V170.53h109.51v25.85h-78.9V332.65z M529.81,263.49h-76.86v-25.85h76.86V263.49z"/>
		<path class="st1" d="M585.82,332.65h-29.93V169.4h29.93V332.65z"/>
		<path class="st1" d="M651.79,336.27c-8.77,0-16.48-1.59-23.13-4.76c-6.65-3.17-11.83-7.56-15.53-13.15
			c-3.71-5.59-5.56-12.09-5.56-19.5c0-7.86,2.27-14.55,6.8-20.07c4.53-5.52,11-9.78,19.39-12.81c8.39-3.02,18.1-4.54,29.14-4.54
			h29.25v19.5h-26.98c-8.16,0-14.74,1.44-19.73,4.31c-4.99,2.87-7.48,7.03-7.48,12.47c0,4.99,1.93,8.92,5.78,11.79
			c3.85,2.87,8.88,4.31,15.08,4.31c5.9,0,11.26-1.25,16.1-3.74c4.84-2.49,8.77-5.93,11.79-10.32c3.02-4.38,4.76-9.37,5.22-14.97
			l8.62,4.08c0,9.37-2.04,17.61-6.12,24.71c-4.08,7.11-9.79,12.66-17.12,16.67C669.97,334.27,661.47,336.27,651.79,336.27z
			 M717.77,332.65h-27.21v-22.9l-1.36-3.63v-42.85c0-8.01-2.57-14.21-7.71-18.59c-5.14-4.38-12.17-6.58-21.09-6.58
			c-6.5,0-12.58,1.25-18.25,3.74c-5.67,2.49-10.62,6.01-14.85,10.54l-15.64-18.14c6.04-6.04,13.38-10.77,21.99-14.17
			c8.62-3.4,17.99-5.1,28.12-5.1c11.03,0,20.78,1.89,29.25,5.67c8.46,3.78,15.04,9.18,19.73,16.21c4.68,7.03,7.03,15.61,7.03,25.73
			V332.65z"/>
		<path class="st1" d="M804.84,332.65h-29.02L727.3,218.6h31.06l35.82,93.42h-7.03l36.28-93.42h30.16L804.84,332.65z"/>
		<path class="st1" d="M922.29,336.27c-12.4,0-23.35-2.61-32.88-7.82c-9.52-5.21-16.93-12.36-22.22-21.43
			c-5.29-9.07-7.94-19.5-7.94-31.29c0-11.94,2.64-22.45,7.94-31.52c5.29-9.07,12.7-16.21,22.22-21.43
			c9.52-5.21,20.48-7.82,32.88-7.82c12.39,0,23.35,2.61,32.88,7.82c9.52,5.22,16.93,12.36,22.22,21.43
			c5.29,9.07,7.94,19.5,7.94,31.29c0,11.79-2.65,22.26-7.94,31.4c-5.29,9.15-12.7,16.33-22.22,21.54
			C945.64,333.67,934.68,336.27,922.29,336.27z M922.29,311.33c6.35,0,11.94-1.51,16.78-4.53c4.84-3.02,8.62-7.22,11.34-12.58
			c2.72-5.36,4.08-11.6,4.08-18.71c0-6.95-1.36-13.11-4.08-18.48c-2.72-5.36-6.5-9.56-11.34-12.58c-4.84-3.02-10.43-4.54-16.78-4.54
			c-6.35,0-11.94,1.51-16.78,4.54c-4.84,3.03-8.62,7.22-11.34,12.58c-2.72,5.37-4.08,11.6-4.08,18.71c0,6.95,1.36,13.12,4.08,18.48
			c2.72,5.37,6.5,9.56,11.34,12.58C910.35,309.82,915.94,311.33,922.29,311.33z"/>
		<path class="st1" d="M1078.51,216.56v27.21h-6.12c-7.11,0-13.23,1.4-18.37,4.19c-5.14,2.8-9.18,7.14-12.13,13.04
			c-2.95,5.9-4.42,13.53-4.42,22.9v48.75h-29.93V218.6h29.7v36.96h-3.63c1.36-10.13,4.19-17.99,8.5-23.58
			c4.31-5.59,9.37-9.56,15.19-11.9c5.82-2.34,11.53-3.51,17.12-3.51H1078.51z"/>
		<path class="st1" d="M1112.74,198.87c-4.99,0-9.26-1.7-12.81-5.1c-3.55-3.4-5.33-7.52-5.33-12.36c0-5.14,1.77-9.37,5.33-12.7
			c3.55-3.32,7.82-4.99,12.81-4.99c5.14,0,9.44,1.7,12.92,5.1c3.48,3.4,5.22,7.6,5.22,12.58c0,4.84-1.74,8.96-5.22,12.36
			C1122.19,197.17,1117.88,198.87,1112.74,198.87z M1127.71,332.65h-29.93V218.6h29.93V332.65z"/>
		<path class="st1" d="M1146.3,315.64l16.33-18.59c5.14,5.14,11.3,9.22,18.48,12.24c7.18,3.03,14.55,4.54,22.11,4.54
			c6.95,0,12.51-1.28,16.67-3.85c4.16-2.57,6.24-5.74,6.24-9.52c0-3.93-1.85-6.84-5.55-8.73c-3.71-1.89-10.54-3.51-20.52-4.87
			c-16.63-2.42-28.8-6.31-36.5-11.68c-7.71-5.36-11.56-12.81-11.56-22.33c0-7.56,2.11-14.17,6.35-19.84
			c4.23-5.67,10.12-10.09,17.69-13.26c7.56-3.17,16.1-4.76,25.62-4.76c11.34,0,21.35,1.81,30.04,5.44
			c8.69,3.63,16.13,8.39,22.33,14.28l-16.33,18.59c-4.69-4.84-10.09-8.69-16.21-11.56c-6.12-2.87-12.66-4.31-19.61-4.31
			c-6.5,0-11.68,1.21-15.53,3.63c-3.85,2.42-5.78,5.44-5.78,9.07c0,3.17,1.89,5.59,5.67,7.26c3.78,1.66,10.43,3.1,19.95,4.31
			c16.33,2.42,28.57,6.43,36.73,12.02c8.16,5.59,12.24,13.68,12.24,24.26c0,7.71-2.27,14.48-6.8,20.29
			c-4.54,5.82-10.77,10.28-18.71,13.38c-7.94,3.1-17.2,4.65-27.78,4.65c-11.34,0-21.77-1.89-31.29-5.67
			C1161.04,326.83,1152.95,321.84,1146.3,315.64z"/>
		<path class="st1" d="M1346.73,242.63h-78.22V218.6h78.22V242.63z M1348.09,332.65h-28.57c-10.28,0-18.03-2.61-23.24-7.82
			c-5.21-5.21-7.82-12.96-7.82-23.24V188.44h29.93v107.93c0,4.08,0.91,7.07,2.72,8.96c1.81,1.89,4.68,2.83,8.62,2.83h18.37V332.65z"
			/>
	</g>
</g>
</svg>
