<?xml version="1.0" encoding="utf-8"?>
<!-- Generator: Adobe Illustrator 28.0.0, SVG Export Plug-In . SVG Version: 6.00 Build 0)  -->
<svg version="1.1" id="Capa_1" xmlns="http://www.w3.org/2000/svg" xmlns:xlink="http://www.w3.org/1999/xlink" x="0px" y="0px"
	 viewBox="0 0 1080 1080" style="enable-background:new 0 0 1080 1080;" xml:space="preserve">
<style type="text/css">
	.st0{fill:#4F4F4F;}
</style>
<g>
	<g>
		<path class="st0" d="M995.09,838.02c-2.65-27.46-17.22-52.33-38.88-69.41c-29.6-23.34-78.81-71.41-86.51-137.58
			c-11.12-95.64,15.57-438.16-264.67-478.19l-0.81,0.05c-1.93-12.35,1.73-24.38,2.62-27.02c0.04-0.12,0.08-0.24,0.12-0.35
			c0.04-0.12,0.07-0.2,0.07-0.2h0c2.75-7.71,4.26-16,4.26-24.66c0-40.48-32.82-73.3-73.3-73.3c-40.48,0-73.3,32.82-73.3,73.3
			c0,9.11,1.67,17.82,4.71,25.86c1.15,3.66,4.29,15.16,2.34,26.84C194.98,195.6,221.37,535.77,210.3,631.03
			c-7.69,66.17-56.91,114.24-86.51,137.58c-21.66,17.08-36.23,41.95-38.88,69.41c-6.95,72.08,76.46,64.36,76.46,64.36h374.71h7.84
			h374.72C918.63,902.38,1002.04,910.1,995.09,838.02z"/>
		<g>
			<path class="st0" d="M540,1052.64c62.06,0,113.51-45.33,123.1-104.67H416.9C426.49,1007.32,477.94,1052.64,540,1052.64z"/>
		</g>
	</g>
	<g>
		<path class="st0" d="M729.63,98.1c50.73,27.84,214.18,135.3,213.75,364.22c-0.02,11.01-8.59,20.13-19.58,20.72l0,0
			c-11.82,0.64-21.7-8.77-21.78-20.6c-1.24-200.86-139.03-299.74-191.61-330.18c-10.31-5.97-12.91-19.68-5.55-29.05l0,0
			C710.77,95.7,721.25,93.5,729.63,98.1z"/>
	</g>
	<g>
		<path class="st0" d="M348.49,98.1c-50.73,27.84-214.18,135.3-213.75,364.22c0.02,11.01,8.59,20.13,19.58,20.72l0,0
			c11.82,0.64,21.7-8.77,21.78-20.6c1.24-200.86,139.03-299.74,191.61-330.18c10.31-5.97,12.91-19.68,5.55-29.05l0,0
			C367.36,95.7,356.88,93.5,348.49,98.1z"/>
	</g>
</g>
</svg>
